<svg aria-hidden="true" style="width:0;height:0;position:absolute;overflow:hidden" xmlns="http://www.w3.org/2000/svg"><defs><symbol id="icon-burger" viewBox="0 0 32 32"><path d="M2 6h28v6H2zm0 8h28v6H2zm0 8h28v6H2z"/></symbol><symbol id="icon-close" viewBox="0 0 32 32"><path d="m2.518 2 26.963 28M2 29.481 30 2.518"/></symbol><symbol id="icon-ellipse" viewBox="0 0 35 32"><path d="M33.053 16c0 8.837-7.163 16-16 16s-16-7.163-16-16 7.163-16 16-16 16 7.163 16 16z"/></symbol><symbol id="icon-facebook" viewBox="0 0 16 32"><path d="M14.266 15.97H10.09v15.39H3.763V15.97H.754v-5.409h3.009v-3.5c0-2.503 1.182-6.422 6.384-6.422l4.687.02v5.25h-3.401c-.558 0-1.342.28-1.342 1.474v3.183h4.729l-.553 5.403z"/></symbol><symbol id="icon-git" viewBox="0 0 32 32"><path d="M16 .941C7.729.941.941 7.729.941 16c0 7.058 4.953 13.47 11.529 15.059v-4.982c-.652.143-1.251.147-1.915-.049-.89-.263-1.613-.855-2.15-1.759-.342-.577-.949-1.203-1.581-1.157l-.155-1.758c1.368-.117 2.551.833 3.254 2.014.312.525.671.832 1.132.968.446.131.924.068 1.481-.129.14-1.116.651-1.534 1.037-2.122v-.001c-3.922-.585-5.486-2.666-6.106-4.308-.822-2.181-.381-4.905 1.073-6.627.028-.034.079-.121.059-.183-.667-2.014.146-3.679.176-3.856.769.228.894-.229 3.342 1.258l.423.254c.177.105.121.045.298.032a12.77 12.77 0 0 1 3.16-.445 12.84 12.84 0 0 1 3.204.456l.137.014c-.012-.002.037-.009.12-.058 3.057-1.852 2.947-1.247 3.767-1.513.03.177.831 1.87.172 3.858-.089.274 2.65 2.782 1.132 6.809-.62 1.643-2.183 3.724-6.106 4.309v.001c.503.766 1.107 1.174 1.104 2.755v6.219C26.105 29.47 31.057 23.058 31.057 16 31.057 7.729 24.27.941 15.998.941z"/></symbol><symbol id="icon-home" viewBox="0 0 35 32"><path d="M32.64 15.401a1.541 1.541 0 0 0-.129-2.225L17.739.426c-.671-.578-1.745-.566-2.402.027L.515 13.856a1.532 1.532 0 0 0-.071 2.222l.372.382c.617.633 1.613.708 2.224.168l1.108-.979v14.326c0 .879.722 1.591 1.612 1.591h5.778c.89 0 1.612-.712 1.612-1.591V19.952h7.37v10.023c-.013.878.624 1.59 1.515 1.59h6.123c.89 0 1.613-.711 1.613-1.59V15.851l.683.592c.377.328 1.168.065 1.767-.586l.42-.455z"/></symbol><symbol id="icon-logo" viewBox="0 0 127 32"><path fill="#fff" style="fill:var(--color1,#fff)" d="M31.36 16.32C31.36 24.98 24.483 32 16 32S.64 24.98.64 16.32 7.517.64 16 .64s15.36 7.02 15.36 15.68z"/><path fill="#d41443" style="fill:var(--color2,#d41443)" d="M11.849.561C4.444 2.804 0 8.635 0 16.003c0 6.022 3.091 11.277 8.179 13.904 2.64 1.345 3.027.384.579-1.474-1.738-1.409-2.061-2.05-2.061-4.421 0-1.666-.386-3.011-.966-3.524-1.158-.961-1.288-3.46-.128-4.357.45-.384.901-1.666.965-2.819.323-4.228 4.895-8.201 9.467-8.201s9.144 3.972 9.466 8.201c.064 1.153.515 2.435.966 2.819 1.158.897 1.03 3.396-.129 4.357-.579.513-.966 1.858-.966 3.524 0 2.371-.321 3.012-2.06 4.421-2.705 2.115-1.932 2.883 1.094 1.025 4.251-2.627 7.406-8.33 7.406-13.391 0-10.124-10.561-18.325-19.964-15.506z"/><path fill="#d41443" style="fill:var(--color2,#d41443)" d="M12.687 7.994c-1.16.513-2.125 1.154-2.125 1.538 0 .705 3.478 1.987 5.474 1.987s5.474-1.281 5.474-1.987c0-.768-3.993-2.499-5.603-2.499-.644.064-2.125.448-3.22.961zm33.164 3.332c-.966.256-1.158 1.089-1.158 5.702v5.382h4.572l-.193-5.574c-.193-5.83-.451-6.28-3.22-5.51zm7.535.32c-2.125 1.154-2.898 2.563-2.898 5.318 0 3.78 2.061 5.574 5.86 5.318 2.576-.192 2.833-.385 3.027-1.987s.064-1.73-1.932-1.602c-2.061.192-2.125.064-2.125-2.051s.129-2.243 1.997-2.05c1.545.128 2.125-.128 2.382-1.089.129-.641 0-1.538-.387-1.923-.901-.897-4.25-.897-5.924.064zm7.664.064c-.194.513-.258 3.012-.129 5.638l.193 4.742H65.3c3.864 0 4.186-.128 4.379-1.474.193-1.217-.064-1.409-2.06-1.409-1.288 0-2.319-.32-2.319-.641 0-.385.902-.641 1.932-.641 1.481 0 1.932-.256 1.932-1.281s-.451-1.281-1.932-1.281c-1.03 0-1.932-.32-1.932-.641 0-.385.837-.641 1.868-.641 1.804 0 3.027-1.409 2.254-2.627-.58-.961-7.985-.705-8.371.256zm12.943-.192c-2.125.833-2.962 2.307-3.027 4.998-.065 4.613 1.803 6.215 6.633 5.766 1.868-.128 2.189-.448 2.189-1.794 0-1.409-.257-1.602-2.061-1.409-1.546.128-2.125-.064-2.447-1.089-.58-1.987.644-3.588 2.705-3.588 1.224 0 1.868-.384 1.996-1.217.451-2.051-2.833-3.011-5.989-1.666zm7.921-.256c-.323.256-.515 2.883-.515 5.83v5.382l2.06-.192c1.61-.128 2.19-.577 2.512-1.795l.386-1.602.515 1.73c.387 1.474.837 1.795 2.512 1.795 2.769 0 3.091-.449 1.932-2.691-.708-1.41-.837-2.115-.322-2.627.837-.833.902-3.652.129-4.87-.644-1.025-8.371-1.858-9.208-.961zm5.28 3.46c0 .705-.257 1.281-.644 1.281-.322 0-.644-.576-.644-1.281s.322-1.282.644-1.282c.387 0 .644.577.644 1.282zm6.247-3.396c-.258.192-.451 2.819-.451 5.766v5.318h4.186c4.057 0 4.186-.064 4.186-1.602 0-1.346-.322-1.602-1.932-1.602-1.03 0-1.932-.32-1.932-.641 0-.385.708-.641 1.61-.641 1.159 0 1.61-.321 1.61-1.282s-.451-1.281-1.61-1.281c-.902 0-1.61-.32-1.61-.641 0-.384.902-.641 1.932-.641 1.61 0 1.932-.256 1.932-1.602 0-1.538-.193-1.602-3.735-1.602-2.061 0-3.992.192-4.186.448zm13.009-.064c-1.16.32-4.122 8.842-3.542 10.252.515 1.281 3.413 1.153 4.186-.192.579-1.089.644-1.089 1.803 0 1.482 1.281 4.701 1.474 4.701.256 0-.384-.644-2.947-1.482-5.574-1.288-4.228-1.674-4.805-3.027-4.933-.902 0-2.061.064-2.64.192zm1.803 5.83c-.193.641-.322.256-.322-.769 0-1.089.129-1.538.322-1.153.129.448.129 1.345 0 1.922zm7.47-5.766c-.58.192-.837 1.986-.837 5.702v5.382h1.868c1.61 0 1.932-.321 2.189-1.795.257-1.666.257-1.666.772-.32.258.833.902 1.474 1.352 1.474.515 0 1.224-.641 1.546-1.474.515-1.346.58-1.346.58.384.065 1.602.257 1.795 2.061 1.602l1.996-.192.065-5.318c.129-4.933.064-5.318-1.288-5.638-2.061-.512-3.799.705-4.379 3.076l-.451 2.115-.708-2.243c-.902-3.012-2.254-3.78-4.765-2.755zm-106.707.641c-.193.256-.387 1.089-.387 1.922 0 1.474.064 1.474 7.406 1.474 7.341 0 7.405 0 7.405-1.474 0-2.179-.579-2.435-2.64-1.409-2.319 1.217-7.213 1.217-9.531 0-1.03-.513-1.997-.705-2.254-.513zm-1.868 5.702c-1.03 1.089.708 1.538 5.731 1.538h5.409v2.243c0 1.217.322 2.243.644 2.243.386 0 .644-.961.644-2.179 0-2.115.129-2.243 2.576-2.435 1.416-.128 2.576-.512 2.576-.832 0-.705-16.872-1.282-17.581-.577z"/><path fill="#d41443" style="fill:var(--color2,#d41443)" d="M8.629 23.308c0 3.524 1.224 4.229 7.406 4.229s7.405-.705 7.405-4.229c0-1.538-.322-2.179-.966-2.179-.579 0-.965.577-.965 1.538 0 3.588-4.895 3.908-5.603.384-.322-1.858-.515-1.922-3.799-1.922H8.629v2.179zm3.993 7.24c.387 2.051 6.955 1.859 6.955-.128 0-.705-.837-.961-3.606-.961-3.027 0-3.542.192-3.348 1.089z"/></symbol><symbol id="icon-telegram" viewBox="0 0 40 32"><path d="m16.205 20.751-.635 8.339c.909 0 1.302-.364 1.774-.802l4.261-3.801 8.829 6.035c1.619.842 2.76.399 3.197-1.39l5.797-25.346c.514-2.234-.866-3.108-2.443-2.56L2.92 13.398c-2.325.842-2.29 2.052-.395 2.6l8.709 2.528L31.463 6.712c.952-.588 1.818-.263 1.106.326L16.205 20.751z"/></symbol><symbol id="icon-arrow-right" viewBox="0 0 32 32"><path d="m19.414 27.414 10-10a2 2 0 0 0 0-2.828l-10-10a2 2 0 1 0-2.828 2.828L23.172 14H4a2 2 0 1 0 0 4h19.172l-6.586 6.586c-.39.39-.586.902-.586 1.414s.195 1.024.586 1.414a2 2 0 0 0 2.828 0z"/></symbol><symbol id="icon-button-right" viewBox="0 0 75 32"><path d="M.797 19.636v-8.145h2.991c.652 0 1.187.113 1.606.337.427.217.745.516.954.896.209.372.314.787.314 1.245 0 .496-.132.95-.396 1.361-.256.411-.659.71-1.21.896l1.687 3.409H5.032l-1.513-3.212H2.286v3.212H.797zm1.489-4.305h1.408c.497 0 .861-.12 1.094-.361s.349-.559.349-.954c0-.388-.116-.698-.349-.931-.225-.233-.593-.349-1.105-.349H2.287v2.595zm8.178 4.445c-.582 0-1.098-.124-1.548-.372s-.803-.597-1.059-1.047c-.256-.45-.384-.97-.384-1.559 0-.597.124-1.129.372-1.594a2.76 2.76 0 0 1 1.047-1.082c.45-.264.977-.396 1.583-.396.566 0 1.067.124 1.501.372s.772.59 1.012 1.024c.248.427.372.904.372 1.431 0 .085-.004.175-.012.268 0 .093-.004.19-.012.291H8.949c.031.45.186.803.465 1.059.287.256.632.384 1.036.384.303 0 .555-.066.756-.198.209-.14.365-.318.465-.535h1.513a2.762 2.762 0 0 1-.547 1.001 2.632 2.632 0 0 1-.931.698c-.365.171-.78.256-1.245.256zm.012-4.841c-.365 0-.687.105-.966.314-.279.202-.458.512-.535.931h2.874c-.023-.38-.163-.683-.419-.908s-.574-.337-.954-.337zm6.128 4.841c-.497 0-.904-.078-1.222-.233-.318-.163-.555-.376-.71-.64s-.233-.555-.233-.873c0-.535.209-.97.628-1.303s1.047-.5 1.885-.5h1.466v-.14c0-.396-.113-.687-.337-.873s-.504-.279-.838-.279c-.303 0-.566.074-.791.221a.907.907 0 0 0-.419.628h-1.455c.039-.419.178-.784.419-1.094.248-.31.566-.547.954-.71a3.196 3.196 0 0 1 1.303-.256c.822 0 1.47.206 1.943.617s.71.993.71 1.745v3.549h-1.268l-.14-.931c-.171.31-.411.566-.721.768-.303.202-.694.303-1.175.303zm.338-1.164c.427 0 .756-.14.989-.419.241-.279.392-.625.454-1.036h-1.268c-.396 0-.679.074-.849.221a.65.65 0 0 0-.256.524c0 .225.085.399.256.524s.396.186.675.186zm7.041 1.164c-.543 0-1.028-.132-1.455-.396s-.764-.625-1.012-1.082c-.248-.458-.372-.977-.372-1.559s.124-1.098.372-1.548a2.75 2.75 0 0 1 1.012-1.071 2.71 2.71 0 0 1 1.455-.396c.434 0 .815.081 1.14.244s.59.392.791.687v-3.398h1.489v8.378h-1.327l-.163-.826a2.615 2.615 0 0 1-.745.675c-.303.194-.698.291-1.187.291zm.315-1.303c.481 0 .873-.159 1.175-.477.31-.326.465-.741.465-1.245s-.155-.915-.465-1.233c-.303-.326-.694-.489-1.175-.489-.473 0-.865.159-1.175.477s-.465.729-.465 1.233.155.919.465 1.245c.31.326.702.489 1.175.489zm7.396 1.163v-5.772h1.315l.128.78c.186-.279.431-.5.733-.663a2.18 2.18 0 0 1 1.071-.256c.892 0 1.524.345 1.897 1.036a2.25 2.25 0 0 1 .838-.756 2.481 2.481 0 0 1 1.164-.279c.752 0 1.33.225 1.734.675s.605 1.109.605 1.978v3.258H39.69v-3.119c0-.497-.097-.877-.291-1.14-.186-.264-.477-.396-.873-.396-.403 0-.729.147-.977.442-.24.295-.361.706-.361 1.233v2.979h-1.489v-3.119c0-.497-.097-.877-.291-1.14s-.493-.396-.896-.396c-.396 0-.718.147-.966.442-.24.295-.361.706-.361 1.233v2.979h-1.489zm13.667.14a3.004 3.004 0 0 1-1.513-.384 2.892 2.892 0 0 1-1.059-1.059c-.256-.458-.384-.985-.384-1.583s.132-1.121.396-1.571a2.865 2.865 0 0 1 1.059-1.071c.45-.256.954-.384 1.513-.384.551 0 1.047.128 1.489.384.45.256.803.613 1.059 1.071.264.45.396.974.396 1.571s-.132 1.125-.396 1.583c-.256.45-.609.803-1.059 1.059s-.95.384-1.501.384zm0-1.292c.388 0 .725-.143 1.012-.431.287-.295.431-.729.431-1.303s-.144-1.005-.431-1.292c-.287-.295-.621-.442-1.001-.442a1.38 1.38 0 0 0-1.024.442c-.279.287-.419.718-.419 1.292s.14 1.009.419 1.303c.287.287.624.431 1.012.431zm4.287 1.152v-5.772h1.327l.14 1.082c.209-.372.493-.667.849-.884.365-.225.791-.337 1.28-.337v1.571h-.419c-.326 0-.617.05-.873.151s-.458.275-.605.524c-.14.248-.209.593-.209 1.036v2.63h-1.489zm7.316.14c-.582 0-1.098-.124-1.548-.372s-.803-.597-1.059-1.047c-.256-.45-.384-.97-.384-1.559 0-.597.124-1.129.372-1.594a2.76 2.76 0 0 1 1.047-1.082c.45-.264.977-.396 1.583-.396.566 0 1.067.124 1.501.372s.772.59 1.012 1.024c.248.427.372.904.372 1.431 0 .085-.004.175-.012.268 0 .093-.004.19-.012.291h-4.387c.031.45.186.803.465 1.059.287.256.632.384 1.036.384.303 0 .555-.066.756-.198.209-.14.365-.318.465-.535h1.513a2.762 2.762 0 0 1-.547 1.001 2.632 2.632 0 0 1-.931.698c-.365.171-.78.256-1.245.256zm.012-4.841c-.365 0-.687.105-.966.314-.279.202-.458.512-.535.931h2.874c-.023-.38-.163-.683-.419-.908s-.574-.337-.954-.337z"/><path fill="none" stroke="#d41443" style="stroke:var(--color1,#d41443)" stroke-linejoin="round" stroke-linecap="round" stroke-width="1.454" d="m70.267 13.818 3.22 2.909-3.22 2.909"/></symbol><symbol id="icon-home" viewBox="0 0 35 32"><path fill="#d31342" style="fill:var(--color1,#d31342)" d="M32.64 15.4a1.539 1.539 0 0 0-.128-2.223l-.002-.002L17.737.426a1.849 1.849 0 0 0-1.184-.425c-.466 0-.892.171-1.218.454l.002-.002L.516 13.856a1.53 1.53 0 0 0-.072 2.222l.373.381c.613.635 1.611.709 2.224.168l1.107-.979v14.328a1.6 1.6 0 0 0 1.6 1.589H11.55a1.6 1.6 0 0 0 1.6-1.589V19.951h7.371v10.024c-.013.88.624 1.589 1.515 1.589h6.134a1.6 1.6 0 0 0 1.6-1.589V15.849l.685.592c.376.325 1.168.064 1.765-.587l.421-.453z"/></symbol><symbol id="icon-point-small" viewBox="0 0 32 32"><path fill="#c7133e" style="fill:var(--color2,#c7133e)" d="M32 16c0 8.837-7.163 16-16 16S0 24.837 0 16 7.163 0 16 0s16 7.163 16 16z"/></symbol><symbol id="icon-point-big" viewBox="0 0 35 32"><path fill="#d9d9d9" style="fill:var(--color3,#d9d9d9)" d="M33.053 16c0 8.837-7.163 16-16 16s-16-7.163-16-16 7.163-16 16-16 16 7.163 16 16z"/></symbol><symbol id="icon-arrow-forward" viewBox="0 0 32 32"><path fill="#d41443" d="m7.812 5.5 2.875-2.812L23.999 16 10.687 29.312 7.812 26.5 18.375 16z"/></symbol><symbol id="icon-more" viewBox="0 0 19 32"><path d="M.827 1.893c-.482.481-.78 1.146-.78 1.88s.298 1.399.78 1.88L11.174 16 .827 26.347a2.659 2.659 0 0 0 3.76 3.76l12.24-12.24c.482-.481.78-1.146.78-1.88s-.298-1.399-.78-1.88L4.587 1.867C3.574.854 1.867.854.827 1.894z"/></symbol><symbol id="icon-cross" viewBox="0 0 32 32"><path d="m2.52 2 26.96 28M2 29.48 30 2.52"/></symbol><symbol id="icon-btn-close" viewBox="0 0 32 32"><path d="M32 3.223 28.777 0 16 12.777 3.223 0 0 3.223 12.777 16 0 28.777 3.223 32 16 19.223 28.777 32 32 28.777 19.223 16 32 3.223z"/></symbol><symbol id="icon-checkmark" viewBox="0 0 32 32"><path d="M27 4 12 19l-7-7-5 5 12 12L32 9z"/></symbol><symbol id="icon-letter2" viewBox="0 0 43 32"><path d="M37.333 0h-32c-2.2 0-3.981 1.8-3.981 4l-.019 24c0 2.2 1.8 4 4 4h32c2.2 0 4-1.8 4-4V4c0-2.2-1.8-4-4-4zm-.8 8.501-14.139 8.837a2.02 2.02 0 0 1-2.129-.005l.009.005-14.141-8.84A1.7 1.7 0 1 1 7.94 5.621l-.006-.004 13.4 8.381 13.4-8.381a1.7 1.7 0 1 1 1.808 2.876l-.008.004z"/></symbol><symbol id="icon-phone2" viewBox="0 0 32 32"><path d="m27.419 20.853-4.201-.48a3.28 3.28 0 0 0-2.713.941l-3.045 3.045c-4.718-2.435-8.467-6.185-10.835-10.764l-.065-.139L9.623 10.4a3.281 3.281 0 0 0 .94-2.729l.002.016-.48-4.169A3.314 3.314 0 0 0 6.798.592H3.933C2.063.59.509 2.144.623 4.014 1.501 18.14 12.799 29.42 26.909 30.297c1.867.114 3.424-1.44 3.424-3.31v-2.878a3.279 3.279 0 0 0-2.897-3.256l-.015-.001z"/></symbol><symbol id="icon-user" viewBox="0 0 32 32"><path d="M16 16a8 8 0 0 0 0-16 8 8 0 0 0 0 16zm0 4c-5.339 0-16 2.68-16 8v2c0 1.099.901 2 2 2h28c1.099 0 2-.901 2-2v-2c0-5.32-10.661-8-16-8z"/></symbol><symbol id="icon-plus" viewBox="0 0 32 32"><path d="M31 12H20V1a1 1 0 0 0-1-1h-6a1 1 0 0 0-1 1v11H1a1 1 0 0 0-1 1v6a1 1 0 0 0 1 1h11v11a1 1 0 0 0 1 1h6a1 1 0 0 0 1-1V20h11a1 1 0 0 0 1-1v-6a1 1 0 0 0-1-1z"/></symbol><symbol id="icon-minus" viewBox="0 0 32 32"><path d="M0 13v6a1 1 0 0 0 1 1h30a1 1 0 0 0 1-1v-6a1 1 0 0 0-1-1H1a1 1 0 0 0-1 1z"/></symbol><symbol id="icon-cross2" viewBox="0 0 40 40"><path d="M31.708 25.708 22 16l9.708-9.708a1 1 0 0 0 0-1.414L27.122.292a1 1 0 0 0-1.414-.001L16 9.999 6.292.291a.998.998 0 0 0-1.414.001L.292 4.878a1 1 0 0 0 0 1.414L10 16 .292 25.708a.999.999 0 0 0 0 1.414l4.586 4.586a1 1 0 0 0 1.414 0L16 22l9.708 9.708a1 1 0 0 0 1.414 0l4.586-4.586a.999.999 0 0 0 0-1.414z"/></symbol></defs></svg>