<svg aria-hidden="true" style="position:absolute;width:0;height:0;overflow:hidden" xmlns="http://www.w3.org/2000/svg">
    <defs>
        <symbol id="icon-burger" viewBox="0 0 32 32">
            <path d="M2 6h28v6h-28zM2 14h28v6h-28zM2 22h28v6h-28z"></path>
        </symbol>

        <symbol id="icon-close" viewBox="0 0 32 32">
            <path d="m2.518 2 26.963 28M2 29.481 30 2.518" />
        </symbol>
        <symbol id="icon-ellipse" viewBox="0 0 35 32">
            <path d="M33.053 16c0 8.837-7.163 16-16 16s-16-7.163-16-16 7.163-16 16-16 16 7.163 16 16z" />
        </symbol>
        <symbol id="icon-facebook" viewBox="0 0 16 32">
            <path d="M14.266 15.97H10.09v15.39H3.763V15.97H.754v-5.409h3.009v-3.5c0-2.503 1.182-6.422 6.384-6.422l4.687.02v5.25h-3.401c-.558 0-1.342.28-1.342 1.474v3.183h4.729l-.553 5.403z" />
        </symbol>
        <symbol id="icon-git" viewBox="0 0 32 32">
            <path d="M16 .941C7.729.941.941 7.729.941 16c0 7.058 4.953 13.47 11.529 15.059v-4.982c-.652.143-1.251.147-1.915-.049-.89-.263-1.613-.855-2.15-1.759-.342-.577-.949-1.203-1.581-1.157l-.155-1.758c1.368-.117 2.551.833 3.254 2.014.312.525.671.832 1.132.968.446.131.924.068 1.481-.129.14-1.116.651-1.534 1.037-2.122v-.001c-3.922-.585-5.486-2.666-6.106-4.308-.822-2.181-.381-4.905 1.073-6.627.028-.034.079-.121.059-.183-.667-2.014.146-3.679.176-3.856.769.228.894-.229 3.342 1.258l.423.254c.177.105.121.045.298.032a12.77 12.77 0 0 1 3.16-.445 12.84 12.84 0 0 1 3.204.456l.137.014c-.012-.002.037-.009.12-.058 3.057-1.852 2.947-1.247 3.767-1.513.03.177.831 1.87.172 3.858-.089.274 2.65 2.782 1.132 6.809-.62 1.643-2.183 3.724-6.106 4.309v.001c.503.766 1.107 1.174 1.104 2.755v6.219C26.105 29.47 31.057 23.058 31.057 16 31.057 7.729 24.27.941 15.998.941z" />
        </symbol>
        <symbol id="icon-home" viewBox="0 0 35 32">
            <path d="M32.64 15.401a1.541 1.541 0 0 0-.129-2.225L17.739.426c-.671-.578-1.745-.566-2.402.027L.515 13.856a1.532 1.532 0 0 0-.071 2.222l.372.382c.617.633 1.613.708 2.224.168l1.108-.979v14.326c0 .879.722 1.591 1.612 1.591h5.778c.89 0 1.612-.712 1.612-1.591V19.952h7.37v10.023c-.013.878.624 1.59 1.515 1.59h6.123c.89 0 1.613-.711 1.613-1.59V15.851l.683.592c.377.328 1.168.065 1.767-.586l.42-.455z" />
        </symbol>
        <symbol id="icon-logo" viewBox="0 0 127 32">
            <path fill="#fff" style="fill: var(--color1, #fff)" d="M31.36 16.32c0 8.66-6.877 15.68-15.36 15.68s-15.36-7.020-15.36-15.68c0-8.66 6.877-15.68 15.36-15.68s15.36 7.020 15.36 15.68z"></path>
            <path fill="#d41443" style="fill: var(--color2, #d41443)" d="M11.849 0.561c-7.405 2.243-11.849 8.074-11.849 15.442 0 6.022 3.091 11.277 8.179 13.904 2.64 1.345 3.027 0.384 0.579-1.474-1.738-1.409-2.061-2.050-2.061-4.421 0-1.666-0.386-3.011-0.966-3.524-1.158-0.961-1.288-3.46-0.128-4.357 0.45-0.384 0.901-1.666 0.965-2.819 0.323-4.228 4.895-8.201 9.467-8.201s9.144 3.972 9.466 8.201c0.064 1.153 0.515 2.435 0.966 2.819 1.158 0.897 1.030 3.396-0.129 4.357-0.579 0.513-0.966 1.858-0.966 3.524 0 2.371-0.321 3.012-2.060 4.421-2.705 2.115-1.932 2.883 1.094 1.025 4.251-2.627 7.406-8.33 7.406-13.391 0-10.124-10.561-18.325-19.964-15.506z"></path>
            <path fill="#d41443" style="fill: var(--color2, #d41443)" d="M12.687 7.994c-1.16 0.513-2.125 1.154-2.125 1.538 0 0.705 3.478 1.987 5.474 1.987s5.474-1.281 5.474-1.987c0-0.768-3.993-2.499-5.603-2.499-0.644 0.064-2.125 0.448-3.22 0.961zM45.851 11.326c-0.966 0.256-1.158 1.089-1.158 5.702v5.382h4.572l-0.193-5.574c-0.193-5.83-0.451-6.28-3.22-5.51zM53.386 11.646c-2.125 1.154-2.898 2.563-2.898 5.318 0 3.78 2.061 5.574 5.86 5.318 2.576-0.192 2.833-0.385 3.027-1.987s0.064-1.73-1.932-1.602c-2.061 0.192-2.125 0.064-2.125-2.051s0.129-2.243 1.997-2.050c1.545 0.128 2.125-0.128 2.382-1.089 0.129-0.641 0-1.538-0.387-1.923-0.901-0.897-4.25-0.897-5.924 0.064zM61.050 11.71c-0.194 0.513-0.258 3.012-0.129 5.638l0.193 4.742h4.186c3.864 0 4.186-0.128 4.379-1.474 0.193-1.217-0.064-1.409-2.060-1.409-1.288 0-2.319-0.32-2.319-0.641 0-0.385 0.902-0.641 1.932-0.641 1.481 0 1.932-0.256 1.932-1.281s-0.451-1.281-1.932-1.281c-1.030 0-1.932-0.32-1.932-0.641 0-0.385 0.837-0.641 1.868-0.641 1.804 0 3.027-1.409 2.254-2.627-0.58-0.961-7.985-0.705-8.371 0.256zM73.993 11.518c-2.125 0.833-2.962 2.307-3.027 4.998-0.065 4.613 1.803 6.215 6.633 5.766 1.868-0.128 2.189-0.448 2.189-1.794 0-1.409-0.257-1.602-2.061-1.409-1.546 0.128-2.125-0.064-2.447-1.089-0.58-1.987 0.644-3.588 2.705-3.588 1.224 0 1.868-0.384 1.996-1.217 0.451-2.051-2.833-3.011-5.989-1.666zM81.914 11.262c-0.323 0.256-0.515 2.883-0.515 5.83v5.382l2.060-0.192c1.61-0.128 2.19-0.577 2.512-1.795l0.386-1.602 0.515 1.73c0.387 1.474 0.837 1.795 2.512 1.795 2.769 0 3.091-0.449 1.932-2.691-0.708-1.41-0.837-2.115-0.322-2.627 0.837-0.833 0.902-3.652 0.129-4.87-0.644-1.025-8.371-1.858-9.208-0.961zM87.194 14.722c0 0.705-0.257 1.281-0.644 1.281-0.322 0-0.644-0.576-0.644-1.281s0.322-1.282 0.644-1.282c0.387 0 0.644 0.577 0.644 1.282zM93.441 11.326c-0.258 0.192-0.451 2.819-0.451 5.766v5.318h4.186c4.057 0 4.186-0.064 4.186-1.602 0-1.346-0.322-1.602-1.932-1.602-1.030 0-1.932-0.32-1.932-0.641 0-0.385 0.708-0.641 1.61-0.641 1.159 0 1.61-0.321 1.61-1.282s-0.451-1.281-1.61-1.281c-0.902 0-1.61-0.32-1.61-0.641 0-0.384 0.902-0.641 1.932-0.641 1.61 0 1.932-0.256 1.932-1.602 0-1.538-0.193-1.602-3.735-1.602-2.061 0-3.992 0.192-4.186 0.448zM106.45 11.262c-1.16 0.32-4.122 8.842-3.542 10.252 0.515 1.281 3.413 1.153 4.186-0.192 0.579-1.089 0.644-1.089 1.803 0 1.482 1.281 4.701 1.474 4.701 0.256 0-0.384-0.644-2.947-1.482-5.574-1.288-4.228-1.674-4.805-3.027-4.933-0.902 0-2.061 0.064-2.64 0.192zM108.253 17.092c-0.193 0.641-0.322 0.256-0.322-0.769 0-1.089 0.129-1.538 0.322-1.153 0.129 0.448 0.129 1.345 0 1.922zM115.723 11.326c-0.58 0.192-0.837 1.986-0.837 5.702v5.382h1.868c1.61 0 1.932-0.321 2.189-1.795 0.257-1.666 0.257-1.666 0.772-0.32 0.258 0.833 0.902 1.474 1.352 1.474 0.515 0 1.224-0.641 1.546-1.474 0.515-1.346 0.58-1.346 0.58 0.384 0.065 1.602 0.257 1.795 2.061 1.602l1.996-0.192 0.065-5.318c0.129-4.933 0.064-5.318-1.288-5.638-2.061-0.512-3.799 0.705-4.379 3.076l-0.451 2.115-0.708-2.243c-0.902-3.012-2.254-3.78-4.765-2.755zM9.016 11.967c-0.193 0.256-0.387 1.089-0.387 1.922 0 1.474 0.064 1.474 7.406 1.474 7.341 0 7.405 0 7.405-1.474 0-2.179-0.579-2.435-2.64-1.409-2.319 1.217-7.213 1.217-9.531 0-1.030-0.513-1.997-0.705-2.254-0.513zM7.148 17.669c-1.030 1.089 0.708 1.538 5.731 1.538h5.409v2.243c0 1.217 0.322 2.243 0.644 2.243 0.386 0 0.644-0.961 0.644-2.179 0-2.115 0.129-2.243 2.576-2.435 1.416-0.128 2.576-0.512 2.576-0.832 0-0.705-16.872-1.282-17.581-0.577z"></path>
            <path fill="#d41443" style="fill: var(--color2, #d41443)" d="M8.629 23.308c0 3.524 1.224 4.229 7.406 4.229s7.405-0.705 7.405-4.229c0-1.538-0.322-2.179-0.966-2.179-0.579 0-0.965 0.577-0.965 1.538 0 3.588-4.895 3.908-5.603 0.384-0.322-1.858-0.515-1.922-3.799-1.922h-3.478v2.179zM12.622 30.548c0.387 2.051 6.955 1.859 6.955-0.128 0-0.705-0.837-0.961-3.606-0.961-3.027 0-3.542 0.192-3.348 1.089z"></path>
        </symbol>
        <symbol id="icon-telegram" viewBox="0 0 40 32">
            <path d="m16.205 20.751-.635 8.339c.909 0 1.302-.364 1.774-.802l4.261-3.801 8.829 6.035c1.619.842 2.76.399 3.197-1.39l5.797-25.346c.514-2.234-.866-3.108-2.443-2.56L2.92 13.398c-2.325.842-2.29 2.052-.395 2.6l8.709 2.528L31.463 6.712c.952-.588 1.818-.263 1.106.326L16.205 20.751z" />
        </symbol>
        <symbol id="icon-arrow-right" viewBox="0 0 32 32">
            <path d="m19.414 27.414 10-10a2 2 0 0 0 0-2.828l-10-10a2 2 0 1 0-2.828 2.828L23.172 14H4a2 2 0 1 0 0 4h19.172l-6.586 6.586c-.39.39-.586.902-.586 1.414s.195 1.024.586 1.414a2 2 0 0 0 2.828 0z" />
        </symbol>

        <symbol id="icon-button-right" viewBox="0 0 75 32">
            <path  d="M0.797 19.636v-8.145h2.991c0.652 0 1.187 0.113 1.606 0.337 0.427 0.217 0.745 0.516 0.954 0.896 0.209 0.372 0.314 0.787 0.314 1.245 0 0.496-0.132 0.95-0.396 1.361-0.256 0.411-0.659 0.71-1.21 0.896l1.687 3.409h-1.711l-1.513-3.212h-1.233v3.212h-1.489zM2.286 15.331h1.408c0.497 0 0.861-0.12 1.094-0.361s0.349-0.559 0.349-0.954c0-0.388-0.116-0.698-0.349-0.931-0.225-0.233-0.593-0.349-1.105-0.349h-1.396v2.595zM10.464 19.776c-0.582 0-1.098-0.124-1.548-0.372s-0.803-0.597-1.059-1.047c-0.256-0.45-0.384-0.97-0.384-1.559 0-0.597 0.124-1.129 0.372-1.594 0.256-0.465 0.605-0.826 1.047-1.082 0.45-0.264 0.977-0.396 1.583-0.396 0.566 0 1.067 0.124 1.501 0.372s0.772 0.59 1.012 1.024c0.248 0.427 0.372 0.904 0.372 1.431 0 0.085-0.004 0.175-0.012 0.268 0 0.093-0.004 0.19-0.012 0.291h-4.387c0.031 0.45 0.186 0.803 0.465 1.059 0.287 0.256 0.632 0.384 1.036 0.384 0.303 0 0.555-0.066 0.756-0.198 0.209-0.14 0.365-0.318 0.465-0.535h1.513c-0.109 0.365-0.291 0.698-0.547 1.001-0.248 0.295-0.559 0.527-0.931 0.698-0.365 0.171-0.78 0.256-1.245 0.256zM10.476 14.935c-0.365 0-0.687 0.105-0.966 0.314-0.279 0.202-0.458 0.512-0.535 0.931h2.874c-0.023-0.38-0.163-0.683-0.419-0.908s-0.574-0.337-0.954-0.337zM16.604 19.776c-0.497 0-0.904-0.078-1.222-0.233-0.318-0.163-0.555-0.376-0.71-0.64s-0.233-0.555-0.233-0.873c0-0.535 0.209-0.97 0.628-1.303s1.047-0.5 1.885-0.5h1.466v-0.14c0-0.396-0.113-0.687-0.337-0.873s-0.504-0.279-0.838-0.279c-0.303 0-0.566 0.074-0.791 0.221-0.225 0.14-0.365 0.349-0.419 0.628h-1.455c0.039-0.419 0.178-0.784 0.419-1.094 0.248-0.31 0.566-0.547 0.954-0.71 0.388-0.171 0.822-0.256 1.303-0.256 0.822 0 1.47 0.206 1.943 0.617s0.71 0.993 0.71 1.745v3.549h-1.268l-0.14-0.931c-0.171 0.31-0.411 0.566-0.721 0.768-0.303 0.202-0.694 0.303-1.175 0.303zM16.942 18.612c0.427 0 0.756-0.14 0.989-0.419 0.241-0.279 0.392-0.625 0.454-1.036h-1.268c-0.396 0-0.679 0.074-0.849 0.221-0.171 0.14-0.256 0.314-0.256 0.524 0 0.225 0.085 0.399 0.256 0.524s0.396 0.186 0.675 0.186zM23.983 19.776c-0.543 0-1.028-0.132-1.455-0.396s-0.764-0.625-1.012-1.082c-0.248-0.458-0.372-0.977-0.372-1.559s0.124-1.098 0.372-1.548c0.248-0.458 0.586-0.815 1.012-1.071 0.427-0.264 0.912-0.396 1.455-0.396 0.434 0 0.815 0.081 1.14 0.244s0.59 0.392 0.791 0.687v-3.398h1.489v8.378h-1.327l-0.163-0.826c-0.186 0.256-0.434 0.481-0.745 0.675-0.303 0.194-0.698 0.291-1.187 0.291zM24.298 18.473c0.481 0 0.873-0.159 1.175-0.477 0.31-0.326 0.465-0.741 0.465-1.245s-0.155-0.915-0.465-1.233c-0.303-0.326-0.694-0.489-1.175-0.489-0.473 0-0.865 0.159-1.175 0.477s-0.465 0.729-0.465 1.233 0.155 0.919 0.465 1.245c0.31 0.326 0.702 0.489 1.175 0.489zM31.694 19.636v-5.772h1.315l0.128 0.78c0.186-0.279 0.431-0.5 0.733-0.663 0.31-0.171 0.667-0.256 1.071-0.256 0.892 0 1.524 0.345 1.897 1.036 0.209-0.318 0.489-0.57 0.838-0.756 0.357-0.186 0.745-0.279 1.164-0.279 0.752 0 1.33 0.225 1.734 0.675s0.605 1.109 0.605 1.978v3.258h-1.489v-3.119c0-0.497-0.097-0.877-0.291-1.14-0.186-0.264-0.477-0.396-0.873-0.396-0.403 0-0.729 0.147-0.977 0.442-0.24 0.295-0.361 0.706-0.361 1.233v2.979h-1.489v-3.119c0-0.497-0.097-0.877-0.291-1.14s-0.493-0.396-0.896-0.396c-0.396 0-0.718 0.147-0.966 0.442-0.24 0.295-0.361 0.706-0.361 1.233v2.979h-1.489zM45.361 19.776c-0.559 0-1.063-0.128-1.513-0.384-0.442-0.256-0.795-0.609-1.059-1.059-0.256-0.458-0.384-0.985-0.384-1.583s0.132-1.121 0.396-1.571c0.264-0.458 0.617-0.815 1.059-1.071 0.45-0.256 0.954-0.384 1.513-0.384 0.551 0 1.047 0.128 1.489 0.384 0.45 0.256 0.803 0.613 1.059 1.071 0.264 0.45 0.396 0.974 0.396 1.571s-0.132 1.125-0.396 1.583c-0.256 0.45-0.609 0.803-1.059 1.059s-0.95 0.384-1.501 0.384zM45.361 18.484c0.388 0 0.725-0.143 1.012-0.431 0.287-0.295 0.431-0.729 0.431-1.303s-0.144-1.005-0.431-1.292c-0.287-0.295-0.621-0.442-1.001-0.442-0.396 0-0.737 0.147-1.024 0.442-0.279 0.287-0.419 0.718-0.419 1.292s0.14 1.009 0.419 1.303c0.287 0.287 0.624 0.431 1.012 0.431zM49.648 19.636v-5.772h1.327l0.14 1.082c0.209-0.372 0.493-0.667 0.849-0.884 0.365-0.225 0.791-0.337 1.28-0.337v1.571h-0.419c-0.326 0-0.617 0.050-0.873 0.151s-0.458 0.275-0.605 0.524c-0.14 0.248-0.209 0.593-0.209 1.036v2.63h-1.489zM56.964 19.776c-0.582 0-1.098-0.124-1.548-0.372s-0.803-0.597-1.059-1.047c-0.256-0.45-0.384-0.97-0.384-1.559 0-0.597 0.124-1.129 0.372-1.594 0.256-0.465 0.605-0.826 1.047-1.082 0.45-0.264 0.977-0.396 1.583-0.396 0.566 0 1.067 0.124 1.501 0.372s0.772 0.59 1.012 1.024c0.248 0.427 0.372 0.904 0.372 1.431 0 0.085-0.004 0.175-0.012 0.268 0 0.093-0.004 0.19-0.012 0.291h-4.387c0.031 0.45 0.186 0.803 0.465 1.059 0.287 0.256 0.632 0.384 1.036 0.384 0.303 0 0.555-0.066 0.756-0.198 0.209-0.14 0.365-0.318 0.465-0.535h1.513c-0.109 0.365-0.291 0.698-0.547 1.001-0.248 0.295-0.559 0.527-0.931 0.698-0.365 0.171-0.78 0.256-1.245 0.256zM56.976 14.935c-0.365 0-0.687 0.105-0.966 0.314-0.279 0.202-0.458 0.512-0.535 0.931h2.874c-0.023-0.38-0.163-0.683-0.419-0.908s-0.574-0.337-0.954-0.337z"></path>
            <path fill="none" stroke="#d41443" style="stroke: var(--color1, #d41443)" stroke-linejoin="round" stroke-linecap="round" stroke-miterlimit="4" stroke-width="1.4545" d="M70.267 13.818l3.22 2.909-3.22 2.909"></path>
        </symbol>
        <symbol id="icon-home" viewBox="0 0 35 32">
        <path fill="#d31342" style="fill: var(--color1, #d31342)" d="M32.64 15.4c0.256-0.274 0.413-0.644 0.413-1.050 0-0.47-0.21-0.89-0.541-1.173l-0.002-0.002-14.773-12.749c-0.319-0.265-0.733-0.425-1.184-0.425-0.466 0-0.892 0.171-1.218 0.454l0.002-0.002-14.821 13.403c-0.316 0.282-0.515 0.69-0.515 1.145 0 0.42 0.169 0.8 0.443 1.077l-0-0 0.373 0.381c0.613 0.635 1.611 0.709 2.224 0.168l1.107-0.979v14.328c0.006 0.879 0.72 1.589 1.6 1.589 0.005 0 0.009-0 0.014-0h5.775c0.004 0 0.009 0 0.013 0 0.88 0 1.594-0.71 1.6-1.589v-10.025h7.371v10.024c-0.013 0.88 0.624 1.589 1.515 1.589h6.123c0.003 0 0.007 0 0.011 0 0.88 0 1.594-0.71 1.6-1.589v-14.126l0.685 0.592c0.376 0.325 1.168 0.064 1.765-0.587l0.421-0.453z"></path>
        </symbol>
        <symbol id="icon-point-small" viewBox="0 0 32 32">
        <path fill="#c7133e" style="fill: var(--color2, #c7133e)" d="M32 16c0 8.837-7.163 16-16 16s-16-7.163-16-16c0-8.837 7.163-16 16-16s16 7.163 16 16z"></path>
        </symbol>
        <symbol id="icon-point-big" viewBox="0 0 35 32">
        <path fill="#d9d9d9" style="fill: var(--color3, #d9d9d9)" d="M33.053 16c0 8.837-7.163 16-16 16s-16-7.163-16-16c0-8.837 7.163-16 16-16s16 7.163 16 16z"></path>
        </symbol>
        <symbol id="icon-arrow-forward" viewBox="0 0 32 32">
            <path fill="#d41443" d="M7.812 5.5l2.875-2.812 13.312 13.312-13.312 13.312-2.875-2.812 10.563-10.5z"></path>
        </symbol>
        <symbol id="icon-more" viewBox="0 0 19 32">
        <path d="M0.827 1.893c-0.482 0.481-0.78 1.146-0.78 1.88s0.298 1.399 0.78 1.88l10.347 10.347-10.347 10.347c-0.481 0.481-0.779 1.146-0.779 1.88 0 1.468 1.19 2.659 2.659 2.659 0.734 0 1.399-0.298 1.88-0.779l12.24-12.24c0.482-0.481 0.78-1.146 0.78-1.88s-0.298-1.399-0.78-1.88l-12.24-12.24c-1.013-1.013-2.72-1.013-3.76 0.027z"></path>
        </symbol>
        <symbol id="icon-cross" viewBox="0 0 32 32">
        <path d="M2.52 2l26.96 28M2 29.48l28-26.96"></path>
        </symbol>
        <symbol id="icon-btn-close" viewBox="0 0 32 32">
        <path d="M32 3.223l-3.223-3.223-12.777 12.777-12.777-12.777-3.223 3.223 12.777 12.777-12.777 12.777 3.223 3.223 12.777-12.777 12.777 12.777 3.223-3.223-12.777-12.777 12.777-12.777z">
        </path>
        </symbol>
        <symbol id="icon-checkmark" viewBox="0 0 32 32">
        <path d="M27 4l-15 15-7-7-5 5 12 12 20-20z"></path>
        </symbol>
        <symbol id="icon-letter2" viewBox="0 0 43 32">
        <path d="M37.333 0h-32c-2.2 0-3.981 1.8-3.981 4l-0.019 24c0 2.2 1.8 4 4 4h32c2.2 0 4-1.8 4-4v-24c0-2.2-1.8-4-4-4zM36.533 8.501l-14.139 8.837c-0.302 0.188-0.668 0.3-1.060 0.3s-0.758-0.112-1.069-0.305l0.009 0.005-14.141-8.84c-0.503-0.301-0.835-0.843-0.835-1.463 0-0.938 0.761-1.699 1.699-1.699 0.349 0 0.673 0.105 0.943 0.285l-0.006-0.004 13.4 8.381 13.4-8.381c0.264-0.176 0.588-0.282 0.937-0.282 0.938 0 1.699 0.761 1.699 1.699 0 0.62-0.332 1.162-0.828 1.459l-0.008 0.004z"></path>
        </symbol>
        <symbol id="icon-phone2" viewBox="0 0 32 32">
        <path d="M27.419 20.853l-4.201-0.48c-0.116-0.014-0.25-0.023-0.385-0.023-0.909 0-1.732 0.369-2.328 0.964l-3.045 3.045c-4.718-2.435-8.467-6.185-10.835-10.764l-0.065-0.139 3.063-3.056c0.596-0.596 0.964-1.419 0.964-2.328 0-0.136-0.008-0.27-0.024-0.401l0.002 0.016-0.48-4.169c-0.199-1.655-1.595-2.926-3.287-2.926-0.001 0-0.003 0-0.004 0h-2.861c-1.87-0.002-3.424 1.552-3.31 3.422 0.878 14.126 12.176 25.406 26.286 26.283 1.867 0.114 3.424-1.44 3.424-3.31v-2.862c0-0.005 0-0.010 0-0.016 0-1.681-1.266-3.067-2.897-3.256l-0.015-0.001z"></path>
        </symbol>
        <symbol id="icon-user" viewBox="0 0 32 32">
        <path d="M16 16c4.418 0 8-3.582 8-8s-3.582-8-8-8v0c-4.418 0-8 3.582-8 8s3.582 8 8 8v0zM16 20c-5.339 0-16 2.68-16 8v2c0 1.099 0.901 2 2 2h28c1.099 0 2-0.901 2-2v-2c0-5.32-10.661-8-16-8z"></path>
        </symbol>
        <symbol id="icon-plus" viewBox="0 0 32 32">
            <path d="M31 12h-11v-11c0-0.552-0.448-1-1-1h-6c-0.552 0-1 0.448-1 1v11h-11c-0.552 0-1 0.448-1 1v6c0 0.552 0.448 1 1 1h11v11c0 0.552 0.448 1 1 1h6c0.552 0 1-0.448 1-1v-11h11c0.552 0 1-0.448 1-1v-6c0-0.552-0.448-1-1-1z"></path>
        </symbol>
        <symbol id="icon-minus" viewBox="0 0 32 32">
            <path d="M0 13v6c0 0.552 0.448 1 1 1h30c0.552 0 1-0.448 1-1v-6c0-0.552-0.448-1-1-1h-30c-0.552 0-1 0.448-1 1z"></path>
        </symbol>
        <symbol id="icon-cross2" viewBox="0 0 40 40">
            <path d="M31.708 25.708c-0-0-0-0-0-0l-9.708-9.708 9.708-9.708c0-0 0-0 0-0 0.105-0.105 0.18-0.227 0.229-0.357 0.133-0.356 0.057-0.771-0.229-1.057l-4.586-4.586c-0.286-0.286-0.702-0.361-1.057-0.229-0.13 0.048-0.252 0.124-0.357 0.228 0 0-0 0-0 0l-9.708 9.708-9.708-9.708c-0-0-0-0-0-0-0.105-0.104-0.227-0.18-0.357-0.228-0.356-0.133-0.771-0.057-1.057 0.229l-4.586 4.586c-0.286 0.286-0.361 0.702-0.229 1.057 0.049 0.13 0.124 0.252 0.229 0.357 0 0 0 0 0 0l9.708 9.708-9.708 9.708c-0 0-0 0-0 0-0.104 0.105-0.18 0.227-0.229 0.357-0.133 0.355-0.057 0.771 0.229 1.057l4.586 4.586c0.286 0.286 0.702 0.361 1.057 0.229 0.13-0.049 0.252-0.124 0.357-0.229 0-0 0-0 0-0l9.708-9.708 9.708 9.708c0 0 0 0 0 0 0.105 0.105 0.227 0.18 0.357 0.229 0.356 0.133 0.771 0.057 1.057-0.229l4.586-4.586c0.286-0.286 0.362-0.702 0.229-1.057-0.049-0.13-0.124-0.252-0.229-0.357z"></path>
        </symbol>

    </defs>
</svg>